<!DOCTYPE svg PUBLIC "-//W3C//DTD SVG 20010904//EN" "http://www.w3.org/TR/2001/REC-SVG-20010904/DTD/svg10.dtd">
<svg version="1.0" xmlns="http://www.w3.org/2000/svg" width="567px" height="129px" viewBox="0 0 5670 1290" preserveAspectRatio="xMidYMid meet">
<g id="layer101" fill="#720006" stroke="none">
<path d="M170 600 l0 -430 400 0 400 0 0 430 0 430 -400 0 -400 0 0 -430z"/>
</g>
<g id="layer102" fill="#a70211" stroke="none">
<path d="M170 600 l0 -430 400 0 400 0 0 203 0 202 -49 23 c-26 12 -57 30 -67 40 -25 21 -54 40 -74 48 -8 3 -22 10 -30 15 -8 5 -38 19 -65 33 -28 13 -57 31 -64 40 -7 9 -21 16 -31 16 -10 0 -23 7 -30 15 -7 8 -17 15 -23 15 -5 0 -26 12 -46 27 -25 19 -31 21 -21 8 15 -19 14 -19 -10 -2 -41 29 -144 77 -165 77 -11 0 -27 5 -35 10 -15 10 0 9 65 -7 16 -3 17 -2 5 6 -8 6 -23 11 -32 11 -10 0 -18 4 -18 8 0 5 -19 16 -42 27 -38 17 -40 19 -23 31 17 13 16 14 -13 14 l-32 0 0 -430z m607 -7 c-3 -10 -5 -2 -5 17 0 19 2 27 5 18 2 -10 2 -26 0 -35z"/>
</g>
<g id="layer103" fill="#5b5b5b" stroke="none">
<path d="M4772 881 c2 -6 19 -20 38 -33 49 -33 52 -80 9 -174 -17 -38 -37 -86 -45 -106 -12 -36 -12 -38 7 -38 19 0 53 60 84 150 6 19 18 35 25 35 7 0 27 -40 44 -90 26 -74 36 -91 55 -93 21 -3 22 -2 8 20 -9 13 -29 62 -46 110 -39 111 -83 189 -120 211 -31 18 -65 23 -59 8z"/>
<path d="M1525 776 c-35 -15 -47 -29 -64 -73 -19 -46 -6 -96 34 -139 35 -36 35 -37 100 -32 l65 6 5 -32 c2 -17 6 -46 7 -65 2 -19 9 -36 16 -39 9 -3 12 18 12 80 1 46 3 131 6 191 5 81 3 107 -6 107 -7 0 -19 -8 -25 -17 -12 -17 -14 -17 -32 -1 -26 23 -82 30 -118 14z m117 -43 c24 -22 26 -128 1 -155 -21 -23 -89 -24 -115 -1 -24 22 -26 134 -2 157 21 21 92 21 116 -1z"/>
<path d="M1840 772 c-26 -13 -39 -29 -52 -65 -17 -46 -17 -49 2 -101 23 -62 46 -76 121 -76 62 0 81 10 109 56 43 69 7 169 -71 193 -49 15 -68 14 -109 -7z m128 -34 c19 -19 15 -138 -5 -160 -19 -21 -102 -25 -121 -6 -19 19 -15 138 5 160 19 21 102 25 121 6z"/>
<path d="M2194 780 c-12 -5 -25 -13 -29 -19 -9 -16 -35 -13 -35 4 0 8 -7 15 -15 15 -13 0 -15 -25 -13 -187 3 -163 5 -188 19 -191 13 -2 17 10 21 68 3 39 8 74 12 77 4 4 16 2 26 -5 32 -19 104 -15 133 9 74 57 45 204 -45 230 -39 11 -46 11 -74 -1z m98 -47 c27 -24 26 -125 -2 -153 -23 -23 -108 -28 -128 -8 -19 19 -15 138 5 160 21 24 99 25 125 1z"/>
<path d="M2473 779 c-47 -14 -68 -51 -68 -120 0 -53 4 -62 35 -94 30 -31 39 -35 86 -35 67 0 105 28 107 80 l2 35 -90 5 -90 5 -3 28 c-6 49 21 67 100 67 51 0 68 3 68 14 0 24 -85 33 -147 15z m117 -183 c0 -28 -16 -36 -74 -36 -45 0 -66 13 -66 42 0 16 9 18 70 18 67 0 70 -1 70 -24z"/>
<path d="M3223 780 c-30 -12 -46 -46 -38 -81 7 -33 54 -62 119 -74 33 -7 37 -10 34 -34 -3 -25 -6 -26 -66 -29 -44 -2 -62 -7 -59 -15 2 -8 28 -12 72 -12 61 0 70 3 86 25 21 28 35 129 25 183 -6 33 -8 34 -49 34 -23 -1 -55 2 -72 6 -16 3 -40 2 -52 -3z m98 -30 c14 -8 19 -21 19 -55 l0 -45 -39 0 c-23 0 -46 7 -55 16 -19 18 -21 65 -4 82 15 15 53 16 79 2z"/>
<path d="M3473 783 c-7 -2 -13 -11 -13 -19 0 -10 14 -14 55 -14 54 0 55 -1 55 -28 0 -28 -26 -62 -47 -62 -22 0 -63 -42 -63 -66 0 -40 33 -64 90 -64 38 0 50 4 50 15 0 11 -12 15 -45 15 -43 0 -45 1 -45 30 0 26 7 33 47 52 56 27 75 62 53 103 -18 33 -96 55 -137 38z"/>
<path d="M4552 780 c-12 -5 -27 -20 -33 -34 -25 -55 19 -107 102 -120 43 -7 59 -27 39 -51 -8 -10 -31 -15 -71 -15 -57 0 -77 -11 -43 -24 25 -9 113 -7 134 4 27 15 40 64 40 155 l0 82 -42 -1 c-24 0 -56 2 -73 6 -16 4 -40 3 -53 -2z m106 -42 c7 -7 12 -29 12 -50 l0 -38 -43 0 c-53 0 -67 13 -67 62 l0 38 43 0 c24 0 48 -5 55 -12z"/>
<path d="M5105 776 c-39 -17 -55 -37 -65 -82 -11 -46 13 -128 43 -149 22 -15 110 -21 142 -9 20 8 45 56 45 88 0 25 -1 25 -92 28 l-93 3 -3 32 c-4 45 26 63 105 63 47 0 63 4 63 14 0 25 -97 33 -145 12z m115 -174 c0 -29 -21 -42 -70 -42 -49 0 -70 13 -70 42 0 16 9 18 70 18 61 0 70 -2 70 -18z"/>
<path d="M1120 768 c0 -7 16 -56 36 -108 19 -52 44 -125 56 -162 20 -66 22 -68 54 -68 25 0 34 5 39 23 4 12 29 81 55 152 68 184 66 177 39 173 -16 -2 -27 -16 -42 -56 l-20 -53 -76 3 -76 3 -17 50 c-15 46 -48 76 -48 43z m195 -138 c7 -11 -21 -107 -38 -128 -5 -7 -15 -11 -20 -9 -13 4 -37 82 -37 120 0 25 3 27 44 27 25 0 48 -5 51 -10z"/>
<path d="M2810 605 l0 -175 95 0 c52 0 95 4 95 9 0 5 -34 12 -75 16 l-75 7 0 54 c0 29 4 55 9 58 5 4 37 9 70 12 40 5 61 11 61 20 0 9 -20 14 -67 16 l-68 3 -3 78 c-3 69 -5 77 -22 77 -19 0 -20 -8 -20 -175z"/>
<path d="M3080 589 c0 -148 3 -190 13 -187 15 6 30 334 16 361 -23 43 -29 9 -29 -174z"/>
<path d="M3690 590 c0 -149 3 -191 13 -188 7 3 14 31 18 71 3 37 8 70 12 73 3 4 19 1 35 -5 16 -7 46 -11 67 -9 66 5 79 40 76 201 -1 40 -4 47 -21 47 -19 0 -20 -7 -20 -93 0 -107 -11 -127 -71 -127 -60 0 -69 14 -77 119 -4 61 -11 96 -19 99 -10 3 -13 -39 -13 -188z"/>
<path d="M4100 605 l0 -175 89 0 c73 0 93 3 114 20 35 27 43 70 21 115 -22 48 -47 63 -115 71 l-57 6 -6 69 c-6 59 -10 69 -27 69 -18 0 -19 -8 -19 -175z m172 -22 c11 -10 18 -30 18 -54 0 -51 -37 -81 -94 -77 l-41 3 -3 59 c-2 32 -1 65 2 72 8 20 95 18 118 -3z"/>
<path d="M4402 593 c3 -167 5 -188 20 -191 15 -3 17 9 20 97 2 55 2 140 0 190 -3 83 -4 91 -23 91 -19 0 -19 -6 -17 -187z"/>
<path d="M5339 741 c-5 -153 -1 -211 15 -211 8 0 17 7 20 16 6 16 8 16 24 0 22 -19 66 -22 60 -3 -3 6 -14 13 -26 15 -35 5 -44 27 -50 124 -6 77 -10 93 -24 96 -15 3 -18 -4 -19 -37z"/>
</g>
<g id="layer104" fill="#fbfbfb" stroke="none">
<path d="M240 867 l0 -64 44 -17 c80 -31 146 -121 203 -279 35 -99 66 -149 124 -201 55 -49 120 -76 186 -76 l43 0 0 65 c0 61 -1 65 -22 65 -43 1 -106 38 -137 81 -17 23 -31 46 -31 51 0 4 25 8 55 8 l55 0 0 70 0 70 -83 0 -83 0 -30 61 c-55 117 -167 206 -281 224 l-43 7 0 -65z"/>
</g>


</svg>